Patient4_TMGait_0pt2_01_left_20_GRF.mot
version=1
nRows=45
nColumns=19
inDegrees=no
endheader
time	F1x	F1y	F1z	M1x	M1y	M1z	F2x	F2y	F2z	M2x	M2y	M2z	EC1x	EC1y	EC1z	EC2x	EC2y	EC2z
46.01	-3.8966	37.3993	4.859	-14.0274	-4.743	33.5492	0.92091	685.3422	-30.0818	233.1968	29.7655	619.714	-0.0592	0.0182	-0.0073	-0.0462	0.0165	0.9585
46.0326	-3.9324	31.5335	4.4337	-11.7663	-4.6302	27.9696	-1.7137	688.7598	-31.572	234.5772	31.3232	622.219	-0.0592	0.0182	-0.0073	-0.0462	0.0165	0.9585
46.0553	-3.7878	24.8362	3.8007	-9.2249	-4.252	21.8265	-4.1705	695.5468	-33.262	237.1219	33.0211	627.614	-0.0592	0.0182	-0.0073	-0.0462	0.0165	0.9585
46.0779	-3.3226	18.0223	3.0047	-6.669	-3.5825	15.7452	-6.2677	706.1099	-34.9449	240.9814	34.6568	636.2034	-0.0592	0.0182	-0.0073	-0.0462	0.0165	0.9585
46.1006	-2.5852	11.8755	2.1647	-4.3822	-2.7339	10.3698	-7.8852	720.5787	-36.3677	246.2234	35.9828	648.0016	-0.0592	0.0182	-0.0073	-0.0462	0.0165	0.9585
46.1232	-1.8012	6.9474	1.4172	-2.5598	-1.9055	6.1331	-8.9401	738.9497	-37.2986	252.8697	36.7651	662.8831	-0.0592	0.0182	-0.0073	-0.0462	0.0165	0.9585
46.1459	-1.1356	3.3851	0.82933	-1.248	-1.2207	3.1187	-9.3375	761.0486	-37.5897	260.87	36.8272	680.5666	-0.0592	0.0182	-0.0073	-0.0462	0.0165	0.9585
46.1685	-0.67	1.0612	0.41067	-0.39285	-0.72538	1.1822	-8.9778	786.3203	-37.222	270.0218	36.0972	700.4662	-0.0592	0.0182	-0.0073	-0.0462	0.0165	0.9585
46.1911	-0.42501	-0.30109	0.14031	0.11121	-0.41775	0.067509	-7.8362	813.4283	-36.2982	279.835	34.6361	721.3924	-0.0592	0.0182	-0.0073	-0.0462	0.0165	0.9585
46.2138	-0.37772	-1.0418	-0.01625	0.38945	-0.26778	-0.53123	-6.0158	839.9389	-35.03	289.4298	32.6515	741.298	-0.0592	0.0182	-0.0073	-0.0462	0.0165	0.9585
46.2364	-0.46929	-1.5073	-0.099547	0.56892	-0.22624	-0.92769	-3.719	862.5512	-33.6834	297.625	30.4342	757.4719	-0.0592	0.0182	-0.0073	-0.0462	0.0165	0.9585
46.2591	-0.60718	-2.0228	-0.15349	0.76895	-0.22596	-1.4155	-1.1689	877.9177	-32.4801	303.2296	28.2402	767.2117	-0.0592	0.0182	-0.0073	-0.0462	0.0165	0.9585
46.2817	-0.69073	-2.8439	-0.22054	1.0845	-0.19279	-2.2283	1.5017	883.6047	-31.5582	305.3812	26.2226	768.5896	-0.0592	0.0182	-0.0073	-0.0462	0.0165	0.9585
46.3044	-0.66192	-4.0873	-0.32975	1.5598	-0.077071	-3.4741	4.3015	878.738	-30.9845	303.7697	24.4261	760.9706	-0.0592	0.0182	-0.0073	-0.0462	0.0165	0.9585
46.327	-0.51593	-5.6915	-0.49236	2.1701	0.13718	-5.0876	7.2988	864.0603	-30.7813	298.6578	22.8408	745.0673	-0.0592	0.0182	-0.0073	-0.0462	0.0165	0.9585
46.3496	-0.29394	-7.3727	-0.69977	2.8048	0.42928	-6.7921	10.4985	841.581	-30.9503	290.7567	21.4675	722.6546	-0.0592	0.0182	-0.0073	-0.0462	0.0165	0.9585
46.3723	-0.034179	-8.613	-0.92474	3.2645	0.75877	-8.1001	13.8102	814.0943	-31.4826	281.0572	20.342	696.1518	-0.0592	0.0182	-0.0073	-0.0462	0.0165	0.9585
46.3949	0.25712	-8.6328	-1.1155	3.25	1.0719	-8.2774	17.1208	784.6695	-32.3408	270.6506	19.4892	668.1675	-0.0592	0.0182	-0.0073	-0.0462	0.0165	0.9585
46.4176	0.59581	-6.3544	-1.1845	2.3482	1.2892	-6.3003	20.3342	756.0951	-33.4399	260.5317	18.8897	641.0339	-0.0592	0.0182	-0.0073	-0.0462	0.0165	0.9585
46.4402	1.0088	-0.40636	-1.0055	0.03504	1.2955	-0.84405	23.344	730.3429	-34.6562	251.4096	18.4957	616.3885	-0.0592	0.0182	-0.0073	-0.0462	0.0165	0.9585
46.4629	1.5191	10.7795	-0.4153	-4.2848	0.93395	9.6303	26.0244	708.2117	-35.8487	243.5815	18.2498	594.899	-0.0592	0.0182	-0.0073	-0.0462	0.0165	0.9585
46.4855	2.1253	28.7365	0.78322	-11.1906	0.0032234	26.6533	28.2404	689.2763	-36.8762	236.9121	18.0947	576.225	-0.0592	0.0182	-0.0073	-0.0462	0.0165	0.9585
46.5081	2.7484	54.5849	2.7989	-21.0999	-1.7427	51.3919	29.8693	672.1146	-37.5922	230.912	17.9607	559.2175	-0.0592	0.0182	-0.0073	-0.0462	0.0165	0.9585
46.5308	3.0913	88.4815	5.798	-34.053	-4.5975	84.1369	30.816	654.7037	-37.8365	224.8738	17.7543	542.2497	-0.0592	0.0182	-0.0073	-0.0462	0.0165	0.9585
46.5534	2.5237	129.0083	9.8491	-49.4759	-8.8872	123.7012	31.0159	634.9114	-37.4548	218.0437	17.3686	523.6209	-0.0592	0.0182	-0.0073	-0.0462	0.0165	0.9585
46.5761	0.56488	173.1243	14.8378	-66.1726	-14.6921	167.3368	30.4541	611.0433	-36.3645	209.8091	16.7303	501.9897	-0.0592	0.0182	-0.0073	-0.0462	0.0165	0.9585
46.5987	-2.7492	217.2737	20.2304	-82.7802	-21.4694	211.7082	29.1965	582.383	-34.6308	199.8862	15.8532	476.7961	-0.0592	0.0182	-0.0073	-0.0462	0.0165	0.9585
46.6214	-7.0986	258.9344	25.2281	-98.3661	-28.2946	254.3585	27.4137	549.45	-32.4589	188.4216	14.8304	448.4619	-0.0592	0.0182	-0.0073	-0.0462	0.0165	0.9585
46.644	-12.0502	296.9044	29.2328	-112.5124	-34.3921	293.9958	25.3635	513.7773	-30.0969	175.9376	13.7663	418.199	-0.0592	0.0182	-0.0073	-0.0462	0.0165	0.9585
46.6666	-17.0792	330.7461	32.0216	-125.0827	-39.3138	329.9436	23.3177	477.3435	-27.7522	163.1436	12.7319	387.5627	-0.0592	0.0182	-0.0073	-0.0462	0.0165	0.9585
46.6893	-21.6034	360.4357	33.7238	-136.0829	-42.9347	361.8282	21.479	441.9546	-25.577	150.7105	11.7793	357.9664	-0.0592	0.0182	-0.0073	-0.0462	0.0165	0.9585
46.7119	-25.1165	386.2761	34.6114	-145.6391	-45.3064	389.5834	19.9548	408.9506	-23.6516	139.1529	10.9336	330.4463	-0.0592	0.0182	-0.0073	-0.0462	0.0165	0.9585
46.7346	-27.3029	408.8839	34.9041	-153.9983	-46.5229	413.5274	18.7848	379.2029	-21.9644	128.8117	10.1685	305.6605	-0.0592	0.0182	-0.0073	-0.0462	0.0165	0.9585
46.7572	-28.0748	428.9704	34.7651	-161.4408	-46.7264	434.2177	17.9643	353.1492	-20.4477	119.8538	9.4292	283.9252	-0.0592	0.0182	-0.0073	-0.0462	0.0165	0.9585
46.7799	-27.6025	447.122	34.3497	-168.1883	-46.1526	452.2703	17.4491	330.7881	-19.0533	112.2684	8.6848	265.2174	-0.0592	0.0182	-0.0073	-0.0462	0.0165	0.9585
46.8025	-26.2719	463.7436	33.8125	-174.3769	-45.1148	468.269	17.154	311.6826	-17.7812	105.8749	7.9516	249.1747	-0.0592	0.0182	-0.0073	-0.0462	0.0165	0.9585
46.8251	-24.5447	479.1447	33.3103	-180.0919	-43.95	482.7499	16.9763	295.075	-16.6609	100.3746	7.276	235.1879	-0.0592	0.0182	-0.0073	-0.0462	0.0165	0.9585
46.8478	-22.7735	493.6344	32.9685	-185.4234	-42.9158	496.1773	16.8366	280.0864	-15.7207	95.4319	6.7019	222.5622	-0.0592	0.0182	-0.0073	-0.0462	0.0165	0.9585
46.8704	-21.0825	507.496	32.8462	-190.4735	-42.1134	508.8665	16.7036	265.9251	-14.9629	90.7525	6.2445	210.6801	-0.0592	0.0182	-0.0073	-0.0462	0.0165	0.9585
46.8931	-19.4134	520.8423	32.9413	-195.3002	-41.5201	520.8862	16.5981	252.0681	-14.3657	86.147	5.8858	199.1351	-0.0592	0.0182	-0.0073	-0.0462	0.0165	0.9585
46.9157	-17.6658	533.5256	33.2082	-199.8721	-41.061	532.0608	16.5744	238.3723	-13.9005	81.5648	5.5887	187.8107	-0.0592	0.0182	-0.0073	-0.0462	0.0165	0.9585
46.9384	-15.8229	545.2008	33.5571	-204.0869	-40.6546	542.1009	16.6709	225.0511	-13.5483	77.0812	5.3277	176.8632	-0.0592	0.0182	-0.0073	-0.0462	0.0165	0.9585
46.961	-13.9951	555.4643	33.8649	-207.8159	-40.2347	550.7431	16.8703	212.5224	-13.2981	72.8428	5.1042	166.6125	-0.0592	0.0182	-0.0073	-0.0462	0.0165	0.9585
46.9836	-12.3801	564.008	34.0227	-210.9502	-39.774	557.8554	17.0991	201.149	-13.1361	68.9758	4.9362	157.3374	-0.0592	0.0182	-0.0073	-0.0462	0.0165	0.9585
47.0063	-11.1831	570.7639	33.9797	-213.4541	-39.2953	563.5137	17.2423	190.9651	-13.0419	65.4921	4.8487	149.0587	-0.0592	0.0182	-0.0073	-0.0462	0.0165	0.9585
